nColumns=19
nRows=109
DataType=double
version=3
OpenSimVersion=4.1
endheader
time	ground_force_calcn_r_vx	ground_force_calcn_r_vy	ground_force_calcn_r_vz	ground_force_calcn_r_px	ground_force_calcn_r_py	ground_force_calcn_r_pz	ground_force_calcn_r_mx	ground_force_calcn_r_my	ground_force_calcn_r_mz	ground_force_calcn_l_vx	ground_force_calcn_l_vy	ground_force_calcn_l_vz	ground_force_calcn_l_px	ground_force_calcn_l_py	ground_force_calcn_l_pz	ground_force_calcn_l_mx	ground_force_calcn_l_my	ground_force_calcn_l_mz
0	-64.148	373.359	14.2757	0.182265	0	-0.154378	-0.0755797	0.439894	0.0168198	0	0	0	0	0	0	0	0	0
0.01	-70.7251	398.903	11.8011	0.186032	0	-0.153429	-0.0710563	0.400771	0.0118564	0	0	0	0	0	0	0	0	0
0.02	-77.3363	425.146	8.70022	0.190515	0	-0.15224	-0.0681588	0.374694	0.00766776	0	0	0	0	0	0	0	0	0
0.03	-83.637	451.012	4.99759	0.194992	0	-0.150973	-0.0685013	0.369393	0.00409318	0	0	0	0	0	0	0	0	0
0.04	-89.3005	475.583	0.805034	0.199408	0	-0.14965	-0.0736957	0.392477	0.000664358	0	0	0	0	0	0	0	0	0
0.05	-94.0699	498.231	-3.69908	0.203721	0	-0.148294	-0.084734	0.448784	-0.00333196	0	0	0	0	0	0	0	0	0
0.06	-97.7815	518.632	-8.30067	0.207908	0	-0.146931	-0.101587	0.538818	-0.00862374	0	0	0	0	0	0	0	0	0
0.07	-100.346	536.666	-12.7704	0.211945	0	-0.145584	-0.123256	0.659189	-0.0156859	0	0	0	0	0	0	0	0	0
0.08	-101.731	552.288	-16.8854	0.215818	0	-0.144273	-0.147892	0.80289	-0.0245472	0	0	0	0	0	0	0	0	0
0.09	-101.955	565.472	-20.4602	0.219512	0	-0.143017	-0.17299	0.959457	-0.0347156	0	0	0	0	0	0	0	0	0
0.1	-101.079	576.197	-23.3686	0.223023	0	-0.141823	-0.195833	1.11634	-0.0452748	0	0	0	0	0	0	0	0	0
0.11	-99.2038	584.453	-25.5536	0.226361	0	-0.140696	-0.214012	1.26084	-0.0551266	0	0	0	0	0	0	0	0	0
0.12	-96.4589	590.257	-27.0263	0.22954	0	-0.13963	-0.225833	1.38193	-0.0632749	0	0	0	0	0	0	0	0	0
0.13	-92.9977	593.673	-27.853	0.232582	0	-0.138619	-0.230518	1.47156	-0.0690404	0	0	0	0	0	0	0	0	0
0.14	-88.9863	594.822	-28.1332	0.235512	0	-0.137653	-0.22818	1.52525	-0.0721395	0	0	0	0	0	0	0	0	0
0.15	-84.5901	593.893	-27.9767	0.238361	0	-0.136724	-0.21961	1.54185	-0.0726322	0	0	0	0	0	0	0	0	0
0.16	-79.9643	591.147	-27.4853	0.241152	0	-0.135825	-0.205975	1.5227	-0.0707978	0	0	0	0	0	0	0	0	0
0.17	-75.2468	586.914	-26.7439	0.243908	0	-0.134957	-0.188534	1.47054	-0.0670081	0	0	0	0	0	0	0	0	0
0.18	-70.5538	581.575	-25.8195	0.246641	0	-0.134117	-0.168472	1.38871	-0.061653	0	0	0	0	0	0	0	0	0
0.19	-65.9767	575.532	-24.7658	0.249361	0	-0.133314	-0.146806	1.28063	-0.055107	0	0	0	0	0	0	0	0	0
0.2	-61.58	569.181	-23.6291	0.252067	0	-0.132551	-0.124364	1.14949	-0.0477203	0	0	0	0	0	0	0	0	0
0.21	-57.4018	562.884	-22.4511	0.254752	0	-0.131837	-0.101805	0.998305	-0.0398183	0	0	0	0	0	0	0	0	0
0.22	-53.4554	556.949	-21.2707	0.257402	0	-0.131181	-0.0796575	0.829947	-0.031697	0	0	0	0	0	0	0	0	0
0.23	-49.732	551.616	-20.1237	0.260001	0	-0.130587	-0.058357	0.647283	-0.0236137	0	0	0	0	0	0	0	0	0
0.24	-46.2054	547.062	-19.0425	0.26253	0	-0.130063	-0.0382689	0.453096	-0.0157716	0	0	0	0	0	0	0	0	0
0.25	-42.836	543.391	-18.0556	0.26497	0	-0.129612	-0.0197137	0.250076	-0.00830944	0	0	0	0	0	0	0	0	0
0.26	-39.5758	540.652	-17.1875	0.267302	0	-0.129237	-0.0029828	0.0407485	-0.00129541	0	0	0	0	0	0	0	0	0
0.27	-36.3725	538.838	-16.4569	0.269516	0	-0.128939	0.0116571	-0.172693	0.00527431	0	0	0	0	0	0	0	0	0
0.28	-33.1754	537.903	-15.8754	0.271603	0	-0.128718	0.0239663	-0.388587	0.0114686	0	0	0	0	0	0	0	0	0
0.29	-29.9399	537.763	-15.4455	0.273564	0	-0.128572	0.0337336	-0.605904	0.0174026	0	0	0	0	0	0	0	0	0
0.3	-26.6298	538.315	-15.1601	0.275407	0	-0.128499	0.0407741	-0.82424	0.0232123	0	0	0	0	0	0	0	0	0
0.31	-23.2188	539.446	-15.005	0.277144	0	-0.1285	0.0449238	-1.04372	0.0290318	0	0	0	0	0	0	0	0	0
0.32	-19.6904	541.055	-14.9635	0.278791	0	-0.128571	0.0460271	-1.26474	0.0349778	0	0	0	0	0	0	0	0	0
0.33	-16.0368	543.061	-15.0187	0.28037	0	-0.128713	0.0439277	-1.48754	0.0411388	0	0	0	0	0	0	0	0	0
0.34	-12.2575	545.416	-15.1557	0.281901	0	-0.128927	0.0384757	-1.71204	0.0475732	0	0	0	0	0	0	0	0	0
0.35	-8.35638	548.098	-15.3631	0.283407	0	-0.129214	0.0295436	-1.93778	0.0543156	0	0	0	0	0	0	0	0	0
0.36	-4.33949	551.114	-15.6332	0.284908	0	-0.129576	0.0170394	-2.164	0.0613852	0	0	0	0	0	0	0	0	0
0.37	-0.211987	554.481	-15.9624	0.286427	0	-0.130014	0.000913582	-2.3896	0.068792	0	0	0	0	0	0	0	0	0
0.38	4.02385	558.218	-16.3514	0.28798	0	-0.130532	-0.018837	-2.6132	0.0765463	0	0	0	0	0	0	0	0	0
0.39	8.36946	562.332	-16.8026	0.289587	0	-0.13113	-0.0421692	-2.83329	0.0846593	0	0	0	0	0	0	0	0	0
0.4	12.8297	566.808	-17.3158	0.29126	0	-0.131808	-0.068997	-3.04824	0.0931229	0	0	0	0	0	0	0	0	0
0.41	17.4113	571.605	-17.8831	0.293013	0	-0.132566	-0.0991931	-3.25646	0.101881	0	0	0	0	0	0	0	0	0
0.42	22.1198	576.66	-18.4847	0.294854	0	-0.133401	-0.132589	-3.45657	0.110799	0	0	0	0	0	0	0	0	0
0.43	26.9567	581.899	-19.0877	0.296787	0	-0.134312	-0.168973	-3.64752	0.119648	0	0	0	0	0	0	0	0	0
0.44	31.9174	587.243	-19.6486	0.298812	0	-0.135293	-0.208088	-3.82858	0.128101	0	0	0	0	0	0	0	0	0
0.45	36.9912	592.618	-20.1177	0.300926	0	-0.136333	-0.249619	-3.99902	0.135756	0	0	0	0	0	0	0	0	0
0.46	42.1635	597.953	-20.4472	0.303118	0	-0.137422	-0.29316	-4.15753	0.142168	0	0	0	0	0	0	0	0	0
0.47	47.4175	603.173	-20.5996	0.305374	0	-0.138539	-0.338158	-4.30154	0.146906	0	0	0	0	0	0	0	0	0
0.48	52.7353	608.186	-20.5545	0.307677	0	-0.139664	-0.383865	-4.42704	0.149618	0	0	0	0	0	0	0	0	0
0.49	58.0966	612.857	-20.3087	0.310004	0	-0.140773	-0.429309	-4.52875	0.150073	0	0	0	0	0	0	0	0	0
0.5	63.4736	616.995	-19.8705	0.312332	0	-0.141843	-0.473316	-4.60087	0.148172	0	0	0	0	0	0	0	0	0
0.51	68.8255	620.335	-19.2499	0.314642	0	-0.142854	-0.514597	-4.63814	0.143928	0	0	0	0	0	0	0	0	0
0.52	74.0931	622.544	-18.4483	0.316917	0	-0.143797	-0.551855	-4.63679	0.137405	0	0	0	0	0	0	0	0	0
0.53	79.1953	623.237	-17.4526	0.319146	0	-0.144661	-0.583928	-4.59529	0.128682	0	0	0	0	0	0	0	0	0
0.54	84.0291	621.987	-16.2374	0.321327	0	-0.145447	-0.609881	-4.51436	0.11785	0	0	0	0	0	0	0	0	0
0.55	88.4723	618.344	-14.7734	0.323464	0	-0.146157	-0.629059	-4.39658	0.105043	-1.3393	30.9218	-4.77085	0.75232	0	-0.218795	-0.00714556	0.164977	-0.0254539
0.56	92.3865	611.858	-13.0381	0.325562	0	-0.146796	-0.641056	-4.24559	0.0904697	-3.42113	49.3233	-5.49046	0.776819	0	-0.22896	-0.0118878	0.17139	-0.0190784
0.57	95.6227	602.093	-11.0251	0.327632	0	-0.147369	-0.645654	-4.06539	0.0744423	-6.26195	71.6297	-6.22612	0.791235	0	-0.234269	-0.0127491	0.145836	-0.0126762
0.58	98.0283	588.661	-8.75063	0.329689	0	-0.147884	-0.642775	-3.85987	0.0573782	-9.97053	97.8266	-6.92933	0.801154	0	-0.237431	-0.0107023	0.105006	-0.00743789
0.59	99.4576	571.254	-6.2569	0.33175	0	-0.148343	-0.632476	-3.63275	0.0397892	-14.617	127.658	-7.53152	0.808751	0	-0.239485	-0.00658808	0.0575374	-0.00339456
0.6	99.7842	549.674	-3.61014	0.333835	0	-0.148753	-0.614979	-3.38769	0.0222496	-20.164	160.685	-7.93934	0.815039	0	-0.240924	-0.00128003	0.0102005	-0.000503998
0.61	98.9125	523.875	-0.896904	0.335963	0	-0.149118	-0.590693	-3.12851	0.0053562	-26.4742	196.273	-8.03791	0.820546	0	-0.242009	0.00417785	-0.0309735	0.00126845
0.62	96.7886	493.985	1.78253	0.338158	0	-0.149443	-0.560215	-2.8592	-0.0103174	-33.3545	233.558	-7.70298	0.825572	0	-0.242887	0.00867614	-0.0607529	0.00200369
0.63	93.4079	460.325	4.32296	0.340439	0	-0.14973	-0.524347	-2.58404	-0.024267	-40.5627	271.497	-6.82011	0.830299	0	-0.243645	0.0112981	-0.0756213	0.00189964
0.64	88.8219	423.416	6.62259	0.342831	0	-0.149984	-0.484092	-2.30768	-0.036094	-47.8211	308.995	-5.31327	0.834846	0	-0.244328	0.0117282	-0.0757815	0.00130309
0.65	83.141	383.969	8.5895	0.345361	0	-0.150208	-0.440622	-2.03492	-0.0455217	-54.8562	345.071	-3.17348	0.839287	0	-0.244958	0.010565	-0.0664588	0.000611195
0.66	76.5318	342.851	10.1472	0.348055	0	-0.150405	-0.395175	-1.77033	-0.0523954	-61.4301	379	-0.468131	0.843676	0	-0.245538	0.00917335	-0.0565961	6.99059e-05
0.67	69.2092	301.03	11.2404	0.350945	0	-0.150573	-0.34894	-1.51774	-0.0566722	-67.3596	410.401	2.6761	0.848041	0	-0.246062	0.00912839	-0.0556164	-0.000362658
0.68	61.4188	259.504	11.8416	0.354069	0	-0.150706	-0.303008	-1.28026	-0.0584201	-72.526	439.226	6.09741	0.852402	0	-0.246517	0.0117609	-0.0712253	-0.000988763
0.69	53.4144	219.235	11.9574	0.357485	0	-0.150792	-0.258385	-1.06052	-0.057842	-76.8638	465.656	9.60798	0.856758	0	-0.246888	0.0179863	-0.108965	-0.00224829
0.7	45.4391	181.088	11.6309	0.361289	0	-0.150814	-0.216041	-0.860984	-0.0552991	-80.3421	489.947	12.9999	0.861092	0	-0.247156	0.0281483	-0.171655	-0.00455456
0.71	37.7118	145.788	10.9372	0.365641	0	-0.150748	-0.176954	-0.684075	-0.0513203	-82.9531	512.318	16.065	0.865382	0	-0.247304	0.0418056	-0.258191	-0.0080962
0.72	30.4243	113.89	9.97048	0.370824	0	-0.150557	-0.142132	-0.532056	-0.0465788	-84.7132	532.912	18.6253	0.869599	0	-0.247328	0.0576894	-0.362911	-0.0126837
0.73	23.7373	85.7614	8.82758	0.37735	0	-0.150179	-0.112601	-0.40682	-0.0418747	-85.6598	551.78	20.554	0.873721	0	-0.247228	0.0739351	-0.476254	-0.0177406
0.74	17.7748	61.5769	7.59669	0.386247	0	-0.149503	-0.0895273	-0.310148	-0.0382626	-85.8469	568.876	21.7867	0.877731	0	-0.247016	0.0884598	-0.58619	-0.0224498
0.75	12.6172	41.3352	6.35254	0.399849	0	-0.148306	-0.0748733	-0.245293	-0.0376975	-85.3437	584.074	22.3249	0.881625	0	-0.246713	0.0993444	-0.679893	-0.0259873
0.76	8.29643	24.8838	5.15515	0.424834	0	-0.146157	-0.0739374	-0.221763	-0.0459424	-84.2311	597.195	22.2321	0.885408	0	-0.246343	0.105153	-0.745527	-0.0277541
0.77	0	0	0	0	0	0	0	0	0	-82.5994	608.034	21.6203	0.889102	0	-0.245935	0.105089	-0.773585	-0.0275069
0.78	0	0	0	0	0	0	0	0	0	-80.5431	616.412	20.6296	0.89273	0	-0.245518	0.0990191	-0.757812	-0.0253618
0.79	0	0	0	0	0	0	0	0	0	-78.1562	622.212	19.4052	0.896328	0	-0.245114	0.087386	-0.695692	-0.0216968
0.8	0	0	0	0	0	0	0	0	0	-75.5284	625.42	18.0774	0.899927	0	-0.244743	0.0710304	-0.588174	-0.0170008
0.81	0	0	0	0	0	0	0	0	0	-72.7428	626.141	16.7478	0.903557	0	-0.244421	0.0509914	-0.438914	-0.0117399
0.82	0	0	0	0	0	0	0	0	0	-69.8713	624.6	15.483	0.907242	0	-0.244155	0.0283336	-0.253282	-0.00627853
0.83	0	0	0	0	0	0	0	0	0	-66.9707	621.124	14.3138	0.91099	0	-0.243948	0.00403811	-0.0374517	-0.000863077
0.84	0	0	0	0	0	0	0	0	0	-64.0784	616.113	13.2419	0.914801	0	-0.243797	-0.0210401	0.2023	0.00434798
0.85	0	0	0	0	0	0	0	0	0	-61.2126	610.001	12.2498	0.91866	0	-0.243694	-0.0461656	0.460053	0.00923861
0.86	0	0	0	0	0	0	0	0	0	-58.3749	603.23	11.3114	0.92254	0	-0.243629	-0.0706859	0.730448	0.013697
0.87	0	0	0	0	0	0	0	0	0	-55.5535	596.205	10.4011	0.926407	0	-0.243587	-0.0939918	1.00873	0.0175978
0.88	0	0	0	0	0	0	0	0	0	-52.7287	589.272	9.49875	0.93022	0	-0.243555	-0.115492	1.29068	0.0208052
0.89	0	0	0	0	0	0	0	0	0	-49.8753	582.698	8.59286	0.933938	0	-0.243518	-0.1346	1.57255	0.0231898
0.9	0	0	0	0	0	0	0	0	0	-46.9652	576.667	7.68171	0.937522	0	-0.243465	-0.150731	1.85076	0.0246538
0.91	0	0	0	0	0	0	0	0	0	-43.97	571.289	6.77385	0.940936	0	-0.243387	-0.163318	2.12193	0.0251601
0.92	0	0	0	0	0	0	0	0	0	-40.8646	566.607	5.88686	0.944153	0	-0.24328	-0.171852	2.3828	0.0247565
0.93	0	0	0	0	0	0	0	0	0	-37.6312	562.615	5.0438	0.947155	0	-0.24314	-0.175933	2.63033	0.0235807
0.94	0	0	0	0	0	0	0	0	0	-34.2604	559.276	4.26886	0.949933	0	-0.242972	-0.175316	2.86191	0.0218445
0.95	0	0	0	0	0	0	0	0	0	-30.7505	556.535	3.58431	0.95249	0	-0.242778	-0.169936	3.07556	0.0198079
0.96	0	0	0	0	0	0	0	0	0	-27.1063	554.336	3.00914	0.954836	0	-0.242563	-0.159901	3.27005	0.017751
0.97	0	0	0	0	0	0	0	0	0	-23.3364	552.627	2.55882	0.956987	0	-0.242337	-0.145469	3.44485	0.0159507
0.98	0	0	0	0	0	0	0	0	0	-19.4509	551.373	2.24544	0.958964	0	-0.242108	-0.127005	3.6002	0.0146617
0.99	0	0	0	0	0	0	0	0	0	-15.4588	550.563	2.07729	0.960791	0	-0.241884	-0.104928	3.73699	0.0140998
1	0	0	0	0	0	0	0	0	0	-11.3661	550.219	2.0585	0.962491	0	-0.241674	-0.0796671	3.85659	0.0144284
1.01	0	0	0	0	0	0	0	0	0	-7.17435	550.395	2.19056	0.964089	0	-0.241489	-0.0516271	3.96068	0.0157634
1.02	0	0	0	0	0	0	0	0	0	-2.87962	551.173	2.47413	0.965607	0	-0.241333	-0.021165	4.05108	0.0181846
1.03	0	0	0	0	0	0	0	0	0	1.52824	552.662	2.9099	0.967063	0	-0.241215	0.0114192	4.12957	0.0217432
1.04	0	0	0	0	0	0	0	0	0	6.06589	554.982	3.49934	0.968474	0	-0.241139	0.0458811	4.19776	0.0264683
1.05	0	0	0	0	0	0	0	0	0	10.7559	558.253	4.24441	0.969847	0	-0.241109	0.08202	4.25702	0.0323662
1.06	0	0	0	0	0	0	0	0	0	15.6256	562.579	5.14586	0.971186	0	-0.241124	0.119665	4.30837	0.0394084
1.07	0	0	0	0	0	0	0	0	0	20.7057	568.028	6.20004	0.972494	0	-0.241187	0.158663	4.35266	0.0475095
1.08	0	0	0	0	0	0	0	0	0	26.0271	574.615	7.39425	0.973767	0	-0.241292	0.198874	4.39066	0.0564998
